<svg xmlns="http://www.w3.org/2000/svg" xmlns:xlink="http://www.w3.org/1999/xlink" version="1.1" x="0px" y="0px" viewBox="0 0 98 122.5" style="enable-background:new 0 0 98 98;" xml:space="preserve"><path d="M88.353,2.913H9.647c-3.571,0-6.477,2.905-6.477,6.477V88.61c0,3.571,2.905,6.477,6.477,6.477h78.706  c3.571,0,6.477-2.905,6.477-6.477V9.39C94.83,5.818,91.924,2.913,88.353,2.913z M9.647,5.624h78.706  c2.076,0,3.766,1.689,3.766,3.766v6.537H5.881V9.39C5.881,7.313,7.571,5.624,9.647,5.624z M88.353,92.376H9.647  c-2.076,0-3.766-1.689-3.766-3.766V18.638h86.237V88.61C92.119,90.687,90.429,92.376,88.353,92.376z M50.925,10.775  c0-0.749,0.607-1.355,1.355-1.355h31.614c0.749,0,1.355,0.607,1.355,1.355s-0.607,1.355-1.355,1.355H52.281  C51.532,12.131,50.925,11.524,50.925,10.775z M12.185,10.775c0-0.749,0.607-1.355,1.355-1.355h2.796  c0.749,0,1.355,0.607,1.355,1.355s-0.607,1.355-1.355,1.355H13.54C12.792,12.131,12.185,11.524,12.185,10.775z M21.584,10.775  c0-0.749,0.607-1.355,1.355-1.355h2.796c0.749,0,1.355,0.607,1.355,1.355s-0.607,1.355-1.355,1.355H22.94  C22.191,12.131,21.584,11.524,21.584,10.775z M30.984,10.775c0-0.749,0.607-1.355,1.355-1.355h2.796  c0.749,0,1.355,0.607,1.355,1.355s-0.607,1.355-1.355,1.355H32.34C31.591,12.131,30.984,11.524,30.984,10.775z M79.949,78.264  L61.724,60.035c2.341-3.798,3.572-8.148,3.572-12.653c0-13.322-10.838-24.161-24.161-24.161c-13.322,0-24.161,10.838-24.161,24.161  c0,13.322,10.838,24.161,24.161,24.161c4.505,0,8.855-1.232,12.653-3.572l18.188,18.186c0,0,0.001,0.001,0.001,0.001  c1.095,1.092,2.532,1.638,3.969,1.638c1.437,0,2.872-0.546,3.964-1.638c2.131-2.13,2.159-5.66,0.063-7.869  C79.966,78.281,79.958,78.273,79.949,78.264z M77.994,84.241c-1.129,1.129-2.969,1.127-4.102-0.003l-18.962-18.96  c-0.461-0.461-1.184-0.528-1.723-0.161c-3.561,2.43-7.735,3.715-12.072,3.715c-11.827,0-21.45-9.622-21.45-21.45  s9.622-21.45,21.45-21.45c11.827,0,21.45,9.622,21.45,21.45c0,4.336-1.285,8.51-3.715,12.072c-0.367,0.538-0.3,1.262,0.161,1.722  l18.987,18.991C79.101,81.32,79.091,83.144,77.994,84.241z M41.135,29.698c-9.751,0-17.684,7.933-17.684,17.684  s7.933,17.684,17.684,17.684c9.751,0,17.684-7.933,17.684-17.684S50.886,29.698,41.135,29.698z M41.135,62.356  c-8.256,0-14.973-6.717-14.973-14.973s6.717-14.973,14.973-14.973s14.973,6.717,14.973,14.973S49.391,62.356,41.135,62.356z   M49.465,37.66c-0.762-0.652-1.733-0.967-2.733-0.891c-1,0.078-1.91,0.54-2.562,1.303l-3.035,3.541L38.1,38.072  c-1.346-1.574-3.721-1.758-5.294-0.412c-1.573,1.346-1.758,3.721-0.411,5.295l3.795,4.427l-3.795,4.428  c-1.346,1.573-1.161,3.948,0.412,5.294c0.762,0.652,1.732,0.969,2.733,0.891c1-0.078,1.91-0.54,2.561-1.302l3.036-3.541l3.035,3.541  c0.652,0.762,1.562,1.225,2.562,1.303c0.099,0.008,0.198,0.011,0.297,0.011c0.894,0,1.749-0.315,2.435-0.902  c1.573-1.346,1.758-3.721,0.411-5.295l-3.795-4.427l3.796-4.428C51.223,41.381,51.038,39.006,49.465,37.66z M47.817,41.191  L43.266,46.5c-0.435,0.508-0.435,1.257,0,1.764l4.55,5.308c0.374,0.437,0.323,1.098-0.115,1.472  c-0.212,0.181-0.482,0.269-0.76,0.248c-0.278-0.022-0.531-0.15-0.713-0.363l-4.065-4.742c-0.258-0.3-0.633-0.473-1.029-0.473  c-0.396,0-0.772,0.173-1.029,0.473L36.04,54.93c-0.181,0.212-0.434,0.341-0.712,0.362c-0.278,0.021-0.548-0.066-0.76-0.248  c-0.437-0.374-0.489-1.035-0.115-1.471l4.551-5.309c0.435-0.508,0.435-1.257,0-1.764l-4.55-5.308  c-0.374-0.438-0.323-1.098,0.114-1.472c0.196-0.168,0.437-0.25,0.678-0.25c0.295,0,0.588,0.124,0.795,0.366l4.065,4.742  c0.258,0.3,0.633,0.473,1.029,0.473c0.396,0,0.772-0.173,1.029-0.473l4.065-4.742c0,0,0.001-0.001,0.001-0.001  c0.181-0.212,0.434-0.34,0.712-0.362c0.278-0.022,0.548,0.066,0.76,0.248C48.139,40.094,48.191,40.754,47.817,41.191z"/></svg>